<svg version="1.1" xmlns="http://www.w3.org/2000/svg" xmlns:xlink="http://www.w3.org/1999/xlink" width="916" height="488"><defs/><g><text fill="#eeeeee" stroke="none" font-family="Arial" font-size="24px" font-style="normal" font-weight="normal" text-decoration="none" x="0" y="0">UNREGISTERED</text><text fill="#eeeeee" stroke="none" font-family="Arial" font-size="24px" font-style="normal" font-weight="normal" text-decoration="none" x="0" y="30">UNREGISTERED</text><text fill="#eeeeee" stroke="none" font-family="Arial" font-size="24px" font-style="normal" font-weight="normal" text-decoration="none" x="0" y="60">UNREGISTERED</text><text fill="#eeeeee" stroke="none" font-family="Arial" font-size="24px" font-style="normal" font-weight="normal" text-decoration="none" x="0" y="90">UNREGISTERED</text><text fill="#eeeeee" stroke="none" font-family="Arial" font-size="24px" font-style="normal" font-weight="normal" text-decoration="none" x="0" y="120">UNREGISTERED</text><text fill="#eeeeee" stroke="none" font-family="Arial" font-size="24px" font-style="normal" font-weight="normal" text-decoration="none" x="0" y="150">UNREGISTERED</text><text fill="#eeeeee" stroke="none" font-family="Arial" font-size="24px" font-style="normal" font-weight="normal" text-decoration="none" x="0" y="180">UNREGISTERED</text><text fill="#eeeeee" stroke="none" font-family="Arial" font-size="24px" font-style="normal" font-weight="normal" text-decoration="none" x="0" y="210">UNREGISTERED</text><text fill="#eeeeee" stroke="none" font-family="Arial" font-size="24px" font-style="normal" font-weight="normal" text-decoration="none" x="0" y="240">UNREGISTERED</text><text fill="#eeeeee" stroke="none" font-family="Arial" font-size="24px" font-style="normal" font-weight="normal" text-decoration="none" x="0" y="270">UNREGISTERED</text><text fill="#eeeeee" stroke="none" font-family="Arial" font-size="24px" font-style="normal" font-weight="normal" text-decoration="none" x="0" y="300">UNREGISTERED</text><text fill="#eeeeee" stroke="none" font-family="Arial" font-size="24px" font-style="normal" font-weight="normal" text-decoration="none" x="0" y="330">UNREGISTERED</text><text fill="#eeeeee" stroke="none" font-family="Arial" font-size="24px" font-style="normal" font-weight="normal" text-decoration="none" x="0" y="360">UNREGISTERED</text><text fill="#eeeeee" stroke="none" font-family="Arial" font-size="24px" font-style="normal" font-weight="normal" text-decoration="none" x="0" y="390">UNREGISTERED</text><text fill="#eeeeee" stroke="none" font-family="Arial" font-size="24px" font-style="normal" font-weight="normal" text-decoration="none" x="0" y="420">UNREGISTERED</text><text fill="#eeeeee" stroke="none" font-family="Arial" font-size="24px" font-style="normal" font-weight="normal" text-decoration="none" x="0" y="450">UNREGISTERED</text><text fill="#eeeeee" stroke="none" font-family="Arial" font-size="24px" font-style="normal" font-weight="normal" text-decoration="none" x="0" y="480">UNREGISTERED</text><text fill="#eeeeee" stroke="none" font-family="Arial" font-size="24px" font-style="normal" font-weight="normal" text-decoration="none" x="200" y="0">UNREGISTERED</text><text fill="#eeeeee" stroke="none" font-family="Arial" font-size="24px" font-style="normal" font-weight="normal" text-decoration="none" x="200" y="30">UNREGISTERED</text><text fill="#eeeeee" stroke="none" font-family="Arial" font-size="24px" font-style="normal" font-weight="normal" text-decoration="none" x="200" y="60">UNREGISTERED</text><text fill="#eeeeee" stroke="none" font-family="Arial" font-size="24px" font-style="normal" font-weight="normal" text-decoration="none" x="200" y="90">UNREGISTERED</text><text fill="#eeeeee" stroke="none" font-family="Arial" font-size="24px" font-style="normal" font-weight="normal" text-decoration="none" x="200" y="120">UNREGISTERED</text><text fill="#eeeeee" stroke="none" font-family="Arial" font-size="24px" font-style="normal" font-weight="normal" text-decoration="none" x="200" y="150">UNREGISTERED</text><text fill="#eeeeee" stroke="none" font-family="Arial" font-size="24px" font-style="normal" font-weight="normal" text-decoration="none" x="200" y="180">UNREGISTERED</text><text fill="#eeeeee" stroke="none" font-family="Arial" font-size="24px" font-style="normal" font-weight="normal" text-decoration="none" x="200" y="210">UNREGISTERED</text><text fill="#eeeeee" stroke="none" font-family="Arial" font-size="24px" font-style="normal" font-weight="normal" text-decoration="none" x="200" y="240">UNREGISTERED</text><text fill="#eeeeee" stroke="none" font-family="Arial" font-size="24px" font-style="normal" font-weight="normal" text-decoration="none" x="200" y="270">UNREGISTERED</text><text fill="#eeeeee" stroke="none" font-family="Arial" font-size="24px" font-style="normal" font-weight="normal" text-decoration="none" x="200" y="300">UNREGISTERED</text><text fill="#eeeeee" stroke="none" font-family="Arial" font-size="24px" font-style="normal" font-weight="normal" text-decoration="none" x="200" y="330">UNREGISTERED</text><text fill="#eeeeee" stroke="none" font-family="Arial" font-size="24px" font-style="normal" font-weight="normal" text-decoration="none" x="200" y="360">UNREGISTERED</text><text fill="#eeeeee" stroke="none" font-family="Arial" font-size="24px" font-style="normal" font-weight="normal" text-decoration="none" x="200" y="390">UNREGISTERED</text><text fill="#eeeeee" stroke="none" font-family="Arial" font-size="24px" font-style="normal" font-weight="normal" text-decoration="none" x="200" y="420">UNREGISTERED</text><text fill="#eeeeee" stroke="none" font-family="Arial" font-size="24px" font-style="normal" font-weight="normal" text-decoration="none" x="200" y="450">UNREGISTERED</text><text fill="#eeeeee" stroke="none" font-family="Arial" font-size="24px" font-style="normal" font-weight="normal" text-decoration="none" x="200" y="480">UNREGISTERED</text><text fill="#eeeeee" stroke="none" font-family="Arial" font-size="24px" font-style="normal" font-weight="normal" text-decoration="none" x="400" y="0">UNREGISTERED</text><text fill="#eeeeee" stroke="none" font-family="Arial" font-size="24px" font-style="normal" font-weight="normal" text-decoration="none" x="400" y="30">UNREGISTERED</text><text fill="#eeeeee" stroke="none" font-family="Arial" font-size="24px" font-style="normal" font-weight="normal" text-decoration="none" x="400" y="60">UNREGISTERED</text><text fill="#eeeeee" stroke="none" font-family="Arial" font-size="24px" font-style="normal" font-weight="normal" text-decoration="none" x="400" y="90">UNREGISTERED</text><text fill="#eeeeee" stroke="none" font-family="Arial" font-size="24px" font-style="normal" font-weight="normal" text-decoration="none" x="400" y="120">UNREGISTERED</text><text fill="#eeeeee" stroke="none" font-family="Arial" font-size="24px" font-style="normal" font-weight="normal" text-decoration="none" x="400" y="150">UNREGISTERED</text><text fill="#eeeeee" stroke="none" font-family="Arial" font-size="24px" font-style="normal" font-weight="normal" text-decoration="none" x="400" y="180">UNREGISTERED</text><text fill="#eeeeee" stroke="none" font-family="Arial" font-size="24px" font-style="normal" font-weight="normal" text-decoration="none" x="400" y="210">UNREGISTERED</text><text fill="#eeeeee" stroke="none" font-family="Arial" font-size="24px" font-style="normal" font-weight="normal" text-decoration="none" x="400" y="240">UNREGISTERED</text><text fill="#eeeeee" stroke="none" font-family="Arial" font-size="24px" font-style="normal" font-weight="normal" text-decoration="none" x="400" y="270">UNREGISTERED</text><text fill="#eeeeee" stroke="none" font-family="Arial" font-size="24px" font-style="normal" font-weight="normal" text-decoration="none" x="400" y="300">UNREGISTERED</text><text fill="#eeeeee" stroke="none" font-family="Arial" font-size="24px" font-style="normal" font-weight="normal" text-decoration="none" x="400" y="330">UNREGISTERED</text><text fill="#eeeeee" stroke="none" font-family="Arial" font-size="24px" font-style="normal" font-weight="normal" text-decoration="none" x="400" y="360">UNREGISTERED</text><text fill="#eeeeee" stroke="none" font-family="Arial" font-size="24px" font-style="normal" font-weight="normal" text-decoration="none" x="400" y="390">UNREGISTERED</text><text fill="#eeeeee" stroke="none" font-family="Arial" font-size="24px" font-style="normal" font-weight="normal" text-decoration="none" x="400" y="420">UNREGISTERED</text><text fill="#eeeeee" stroke="none" font-family="Arial" font-size="24px" font-style="normal" font-weight="normal" text-decoration="none" x="400" y="450">UNREGISTERED</text><text fill="#eeeeee" stroke="none" font-family="Arial" font-size="24px" font-style="normal" font-weight="normal" text-decoration="none" x="400" y="480">UNREGISTERED</text><text fill="#eeeeee" stroke="none" font-family="Arial" font-size="24px" font-style="normal" font-weight="normal" text-decoration="none" x="600" y="0">UNREGISTERED</text><text fill="#eeeeee" stroke="none" font-family="Arial" font-size="24px" font-style="normal" font-weight="normal" text-decoration="none" x="600" y="30">UNREGISTERED</text><text fill="#eeeeee" stroke="none" font-family="Arial" font-size="24px" font-style="normal" font-weight="normal" text-decoration="none" x="600" y="60">UNREGISTERED</text><text fill="#eeeeee" stroke="none" font-family="Arial" font-size="24px" font-style="normal" font-weight="normal" text-decoration="none" x="600" y="90">UNREGISTERED</text><text fill="#eeeeee" stroke="none" font-family="Arial" font-size="24px" font-style="normal" font-weight="normal" text-decoration="none" x="600" y="120">UNREGISTERED</text><text fill="#eeeeee" stroke="none" font-family="Arial" font-size="24px" font-style="normal" font-weight="normal" text-decoration="none" x="600" y="150">UNREGISTERED</text><text fill="#eeeeee" stroke="none" font-family="Arial" font-size="24px" font-style="normal" font-weight="normal" text-decoration="none" x="600" y="180">UNREGISTERED</text><text fill="#eeeeee" stroke="none" font-family="Arial" font-size="24px" font-style="normal" font-weight="normal" text-decoration="none" x="600" y="210">UNREGISTERED</text><text fill="#eeeeee" stroke="none" font-family="Arial" font-size="24px" font-style="normal" font-weight="normal" text-decoration="none" x="600" y="240">UNREGISTERED</text><text fill="#eeeeee" stroke="none" font-family="Arial" font-size="24px" font-style="normal" font-weight="normal" text-decoration="none" x="600" y="270">UNREGISTERED</text><text fill="#eeeeee" stroke="none" font-family="Arial" font-size="24px" font-style="normal" font-weight="normal" text-decoration="none" x="600" y="300">UNREGISTERED</text><text fill="#eeeeee" stroke="none" font-family="Arial" font-size="24px" font-style="normal" font-weight="normal" text-decoration="none" x="600" y="330">UNREGISTERED</text><text fill="#eeeeee" stroke="none" font-family="Arial" font-size="24px" font-style="normal" font-weight="normal" text-decoration="none" x="600" y="360">UNREGISTERED</text><text fill="#eeeeee" stroke="none" font-family="Arial" font-size="24px" font-style="normal" font-weight="normal" text-decoration="none" x="600" y="390">UNREGISTERED</text><text fill="#eeeeee" stroke="none" font-family="Arial" font-size="24px" font-style="normal" font-weight="normal" text-decoration="none" x="600" y="420">UNREGISTERED</text><text fill="#eeeeee" stroke="none" font-family="Arial" font-size="24px" font-style="normal" font-weight="normal" text-decoration="none" x="600" y="450">UNREGISTERED</text><text fill="#eeeeee" stroke="none" font-family="Arial" font-size="24px" font-style="normal" font-weight="normal" text-decoration="none" x="600" y="480">UNREGISTERED</text><text fill="#eeeeee" stroke="none" font-family="Arial" font-size="24px" font-style="normal" font-weight="normal" text-decoration="none" x="800" y="0">UNREGISTERED</text><text fill="#eeeeee" stroke="none" font-family="Arial" font-size="24px" font-style="normal" font-weight="normal" text-decoration="none" x="800" y="30">UNREGISTERED</text><text fill="#eeeeee" stroke="none" font-family="Arial" font-size="24px" font-style="normal" font-weight="normal" text-decoration="none" x="800" y="60">UNREGISTERED</text><text fill="#eeeeee" stroke="none" font-family="Arial" font-size="24px" font-style="normal" font-weight="normal" text-decoration="none" x="800" y="90">UNREGISTERED</text><text fill="#eeeeee" stroke="none" font-family="Arial" font-size="24px" font-style="normal" font-weight="normal" text-decoration="none" x="800" y="120">UNREGISTERED</text><text fill="#eeeeee" stroke="none" font-family="Arial" font-size="24px" font-style="normal" font-weight="normal" text-decoration="none" x="800" y="150">UNREGISTERED</text><text fill="#eeeeee" stroke="none" font-family="Arial" font-size="24px" font-style="normal" font-weight="normal" text-decoration="none" x="800" y="180">UNREGISTERED</text><text fill="#eeeeee" stroke="none" font-family="Arial" font-size="24px" font-style="normal" font-weight="normal" text-decoration="none" x="800" y="210">UNREGISTERED</text><text fill="#eeeeee" stroke="none" font-family="Arial" font-size="24px" font-style="normal" font-weight="normal" text-decoration="none" x="800" y="240">UNREGISTERED</text><text fill="#eeeeee" stroke="none" font-family="Arial" font-size="24px" font-style="normal" font-weight="normal" text-decoration="none" x="800" y="270">UNREGISTERED</text><text fill="#eeeeee" stroke="none" font-family="Arial" font-size="24px" font-style="normal" font-weight="normal" text-decoration="none" x="800" y="300">UNREGISTERED</text><text fill="#eeeeee" stroke="none" font-family="Arial" font-size="24px" font-style="normal" font-weight="normal" text-decoration="none" x="800" y="330">UNREGISTERED</text><text fill="#eeeeee" stroke="none" font-family="Arial" font-size="24px" font-style="normal" font-weight="normal" text-decoration="none" x="800" y="360">UNREGISTERED</text><text fill="#eeeeee" stroke="none" font-family="Arial" font-size="24px" font-style="normal" font-weight="normal" text-decoration="none" x="800" y="390">UNREGISTERED</text><text fill="#eeeeee" stroke="none" font-family="Arial" font-size="24px" font-style="normal" font-weight="normal" text-decoration="none" x="800" y="420">UNREGISTERED</text><text fill="#eeeeee" stroke="none" font-family="Arial" font-size="24px" font-style="normal" font-weight="normal" text-decoration="none" x="800" y="450">UNREGISTERED</text><text fill="#eeeeee" stroke="none" font-family="Arial" font-size="24px" font-style="normal" font-weight="normal" text-decoration="none" x="800" y="480">UNREGISTERED</text><g transform="translate(-46,-38) scale(1,1)"><path fill="#C0C0C0" stroke="none" d="M 63 65 L 276 65 L 276 238 L 63 238" opacity="0.2"/></g><g transform="translate(-46,-38) scale(1,1)"><path fill="#C0C0C0" stroke="none" d="M 63 65 L 73 55 L 286 55 L 276 65" opacity="0.2"/></g><g transform="translate(-46,-38) scale(1,1)"><path fill="#C0C0C0" stroke="none" d="M 286 55 L 276 65 L 276 238 L 286 228" opacity="0.2"/></g><g transform="translate(-46,-38) scale(1,1)"><path fill="#ffffff" stroke="none" d="M 56 58 L 269 58 L 269 231 L 56 231"/></g><g transform="translate(-46,-38) scale(1,1)"><path fill="#ffffff" stroke="none" d="M 56 58 L 66 48 L 279 48 L 269 58"/></g><g transform="translate(-46,-38) scale(1,1)"><path fill="#ffffff" stroke="none" d="M 279 48 L 269 58 L 269 231 L 279 221"/></g><g transform="translate(-46,-38) scale(1,1)"><path fill="none" stroke="#000000" d="M 56 58 L 269 58 L 269 231 L 56 231 L 56 58" stroke-miterlimit="10"/></g><g transform="translate(-46,-38) scale(1,1)"><path fill="none" stroke="#000000" d="M 56 58 L 66 48 L 279 48 L 269 58 L 56 58" stroke-miterlimit="10"/></g><g transform="translate(-46,-38) scale(1,1)"><path fill="none" stroke="#000000" d="M 279 48 L 269 58 L 269 231 L 279 221 L 279 48" stroke-miterlimit="10"/></g><g transform="translate(-46,-38) scale(1,1)"><g><path fill="none" stroke="none"/><text fill="#000000" stroke="none" font-family="Arial" font-size="13px" font-style="normal" font-weight="normal" text-decoration="none" x="136.98095703125" y="75.5">«device»</text></g></g><g transform="translate(-46,-38) scale(1,1)"><g><path fill="none" stroke="none"/><text fill="#000000" stroke="none" font-family="Arial" font-size="13px" font-style="normal" font-weight="bold" text-decoration="none" x="139.155029296875" y="90.5">Desktop</text><path fill="none" stroke="#000000" d="M 188.64453125 90.5 L 137.35546875 90.5" stroke-miterlimit="10"/></g></g><g transform="translate(-46,-38) scale(1,1)"><rect fill="#C0C0C0" stroke="none" x="105" y="119" width="104.9599609375" height="44" opacity="0.2"/></g><g transform="translate(-46,-38) scale(1,1)"><rect fill="#ffffff" stroke="none" x="98" y="112" width="104.9599609375" height="44"/></g><g transform="translate(-46,-38) scale(1,1)"><path fill="none" stroke="#000000" d="M 98 112 L 202.9599609375 112 L 202.9599609375 156 L 98 156 L 98 112 Z Z" stroke-miterlimit="10"/></g><g transform="translate(-46,-38) scale(1,1)"><rect fill="#ffffff" stroke="none" x="88" y="119" width="20" height="10"/></g><g transform="translate(-46,-38) scale(1,1)"><path fill="none" stroke="#000000" d="M 88 119 L 108 119 L 108 129 L 88 129 L 88 119 Z Z" stroke-miterlimit="10"/></g><g transform="translate(-46,-38) scale(1,1)"><rect fill="#ffffff" stroke="none" x="88" y="139" width="20" height="10"/></g><g transform="translate(-46,-38) scale(1,1)"><path fill="none" stroke="#000000" d="M 88 139 L 108 139 L 108 149 L 88 149 L 88 139 Z Z" stroke-miterlimit="10"/></g><g transform="translate(-46,-38) scale(1,1)"><g><path fill="none" stroke="none"/><text fill="#000000" stroke="none" font-family="Arial" font-size="13px" font-style="normal" font-weight="bold" text-decoration="none" x="129.825927734375" y="131.5">MainApp</text><path fill="none" stroke="#000000" d="M 182.9208984375 131.5 L 128.0390625 131.5" stroke-miterlimit="10"/></g></g><g transform="translate(-46,-38) scale(1,1)"><g><path fill="none" stroke="none"/><text fill="#000000" stroke="none" font-family="Arial" font-size="13px" font-style="normal" font-weight="normal" text-decoration="none" x="112.5" y="146.5">(from Desktop)</text></g></g><g transform="translate(-46,-38) scale(1,1)"><path fill="#C0C0C0" stroke="none" d="M 479 73 L 948 73 L 948 382 L 479 382" opacity="0.2"/></g><g transform="translate(-46,-38) scale(1,1)"><path fill="#C0C0C0" stroke="none" d="M 479 73 L 489 63 L 958 63 L 948 73" opacity="0.2"/></g><g transform="translate(-46,-38) scale(1,1)"><path fill="#C0C0C0" stroke="none" d="M 958 63 L 948 73 L 948 382 L 958 372" opacity="0.2"/></g><g transform="translate(-46,-38) scale(1,1)"><path fill="#ffffff" stroke="none" d="M 472 66 L 941 66 L 941 375 L 472 375"/></g><g transform="translate(-46,-38) scale(1,1)"><path fill="#ffffff" stroke="none" d="M 472 66 L 482 56 L 951 56 L 941 66"/></g><g transform="translate(-46,-38) scale(1,1)"><path fill="#ffffff" stroke="none" d="M 951 56 L 941 66 L 941 375 L 951 365"/></g><g transform="translate(-46,-38) scale(1,1)"><path fill="none" stroke="#000000" d="M 472 66 L 941 66 L 941 375 L 472 375 L 472 66" stroke-miterlimit="10"/></g><g transform="translate(-46,-38) scale(1,1)"><path fill="none" stroke="#000000" d="M 472 66 L 482 56 L 951 56 L 941 66 L 472 66" stroke-miterlimit="10"/></g><g transform="translate(-46,-38) scale(1,1)"><path fill="none" stroke="#000000" d="M 951 56 L 941 66 L 941 375 L 951 365 L 951 56" stroke-miterlimit="10"/></g><g transform="translate(-46,-38) scale(1,1)"><g><path fill="none" stroke="none"/><text fill="#000000" stroke="none" font-family="Arial" font-size="13px" font-style="normal" font-weight="normal" text-decoration="none" x="680.98095703125" y="83.5">«device»</text></g></g><g transform="translate(-46,-38) scale(1,1)"><g><path fill="none" stroke="none"/><text fill="#000000" stroke="none" font-family="Arial" font-size="13px" font-style="normal" font-weight="bold" text-decoration="none" x="658.58642578125" y="98.5">EduCloud server</text><path fill="none" stroke="#000000" d="M 759.0126953125 98.5 L 654.9873046875 98.5" stroke-miterlimit="10"/></g></g><g transform="translate(-46,-38) scale(1,1)"><rect fill="#C0C0C0" stroke="none" x="492" y="193" width="154.09716796875" height="44" opacity="0.2"/></g><g transform="translate(-46,-38) scale(1,1)"><rect fill="#ffffff" stroke="none" x="485" y="186" width="154.09716796875" height="44"/></g><g transform="translate(-46,-38) scale(1,1)"><path fill="none" stroke="#000000" d="M 485 186 L 639.09716796875 186 L 639.09716796875 230 L 485 230 L 485 186 Z Z" stroke-miterlimit="10"/></g><g transform="translate(-46,-38) scale(1,1)"><rect fill="#ffffff" stroke="none" x="475" y="193" width="20" height="10"/></g><g transform="translate(-46,-38) scale(1,1)"><path fill="none" stroke="#000000" d="M 475 193 L 495 193 L 495 203 L 475 203 L 475 193 Z Z" stroke-miterlimit="10"/></g><g transform="translate(-46,-38) scale(1,1)"><rect fill="#ffffff" stroke="none" x="475" y="213" width="20" height="10"/></g><g transform="translate(-46,-38) scale(1,1)"><path fill="none" stroke="#000000" d="M 475 213 L 495 213 L 495 223 L 475 223 L 475 213 Z Z" stroke-miterlimit="10"/></g><g transform="translate(-46,-38) scale(1,1)"><g><path fill="none" stroke="none"/><text fill="#000000" stroke="none" font-family="Arial" font-size="13px" font-style="normal" font-weight="bold" text-decoration="none" x="525.490478515625" y="205.5">SQL database</text><path fill="none" stroke="#000000" d="M 610.396728515625 205.5 L 523.700439453125 205.5" stroke-miterlimit="10"/></g></g><g transform="translate(-46,-38) scale(1,1)"><g><path fill="none" stroke="none"/><text fill="#000000" stroke="none" font-family="Arial" font-size="13px" font-style="normal" font-weight="normal" text-decoration="none" x="499.5" y="220.5">(from EduCloud server)</text></g></g><g transform="translate(-46,-38) scale(1,1)"><path fill="none" stroke="#000000" d="M 204 145 L 474 193" stroke-miterlimit="10"/></g><g transform="translate(-46,-38) scale(1,1)"><g><path fill="none" stroke="none"/><text fill="#000000" stroke="none" font-family="Arial" font-size="13px" font-style="normal" font-weight="normal" text-decoration="none" x="316.5" y="160.5">+TCP/IP</text></g></g><g transform="translate(-46,-38) scale(1,1)"><path fill="#C0C0C0" stroke="none" d="M 687 137 L 908 137 L 908 326 L 687 326" opacity="0.2"/></g><g transform="translate(-46,-38) scale(1,1)"><path fill="#C0C0C0" stroke="none" d="M 687 137 L 697 127 L 918 127 L 908 137" opacity="0.2"/></g><g transform="translate(-46,-38) scale(1,1)"><path fill="#C0C0C0" stroke="none" d="M 918 127 L 908 137 L 908 326 L 918 316" opacity="0.2"/></g><g transform="translate(-46,-38) scale(1,1)"><path fill="#ffffff" stroke="none" d="M 680 130 L 901 130 L 901 319 L 680 319"/></g><g transform="translate(-46,-38) scale(1,1)"><path fill="#ffffff" stroke="none" d="M 680 130 L 690 120 L 911 120 L 901 130"/></g><g transform="translate(-46,-38) scale(1,1)"><path fill="#ffffff" stroke="none" d="M 911 120 L 901 130 L 901 319 L 911 309"/></g><g transform="translate(-46,-38) scale(1,1)"><path fill="none" stroke="#000000" d="M 680 130 L 901 130 L 901 319 L 680 319 L 680 130" stroke-miterlimit="10"/></g><g transform="translate(-46,-38) scale(1,1)"><path fill="none" stroke="#000000" d="M 680 130 L 690 120 L 911 120 L 901 130 L 680 130" stroke-miterlimit="10"/></g><g transform="translate(-46,-38) scale(1,1)"><path fill="none" stroke="#000000" d="M 911 120 L 901 130 L 901 319 L 911 309 L 911 120" stroke-miterlimit="10"/></g><g transform="translate(-46,-38) scale(1,1)"><g><path fill="none" stroke="none"/><text fill="#000000" stroke="none" font-family="Arial" font-size="13px" font-style="normal" font-weight="normal" text-decoration="none" x="718.3701171875" y="147.5">«execution environment»</text></g></g><g transform="translate(-46,-38) scale(1,1)"><g><path fill="none" stroke="none"/><text fill="#000000" stroke="none" font-family="Arial" font-size="13px" font-style="normal" font-weight="bold" text-decoration="none" x="770.411376953125" y="162.5">Docker</text><path fill="none" stroke="#000000" d="M 813.0390625 162.5 L 768.9609375 162.5" stroke-miterlimit="10"/></g></g><g transform="translate(-46,-38) scale(1,1)"><g><path fill="none" stroke="none"/><text fill="#000000" stroke="none" font-family="Arial" font-size="13px" font-style="normal" font-weight="normal" text-decoration="none" x="723.451416015625" y="177.5">(from EduCloud server)</text></g></g><g transform="translate(-46,-38) scale(1,1)"><rect fill="#C0C0C0" stroke="none" x="721" y="207" width="166" height="48" opacity="0.2"/></g><g transform="translate(-46,-38) scale(1,1)"><rect fill="#ffffff" stroke="none" x="714" y="200" width="166" height="48"/></g><g transform="translate(-46,-38) scale(1,1)"><path fill="none" stroke="#000000" d="M 714 200 L 880 200 L 880 248 L 714 248 L 714 200 Z Z" stroke-miterlimit="10"/></g><g transform="translate(-46,-38) scale(1,1)"><rect fill="#ffffff" stroke="none" x="704" y="207" width="20" height="10"/></g><g transform="translate(-46,-38) scale(1,1)"><path fill="none" stroke="#000000" d="M 704 207 L 724 207 L 724 217 L 704 217 L 704 207 Z Z" stroke-miterlimit="10"/></g><g transform="translate(-46,-38) scale(1,1)"><rect fill="#ffffff" stroke="none" x="704" y="227" width="20" height="10"/></g><g transform="translate(-46,-38) scale(1,1)"><path fill="none" stroke="#000000" d="M 704 227 L 724 227 L 724 237 L 704 237 L 704 227 Z Z" stroke-miterlimit="10"/></g><g transform="translate(-46,-38) scale(1,1)"><g><path fill="none" stroke="none"/><text fill="#000000" stroke="none" font-family="Arial" font-size="13px" font-style="normal" font-weight="bold" text-decoration="none" x="779.9609375" y="219.5">Jenkins</text><path fill="none" stroke="#000000" d="M 826.206787109375 219.5 L 777.793212890625 219.5" stroke-miterlimit="10"/></g></g><g transform="translate(-46,-38) scale(1,1)"><g><path fill="none" stroke="none"/><text fill="#000000" stroke="none" font-family="Arial" font-size="13px" font-style="normal" font-weight="normal" text-decoration="none" x="762.2763671875" y="234.5">(from Docker)</text></g></g><g transform="translate(-46,-38) scale(1,1)"><path fill="#ffffff" stroke="none" d="M 728 440 L 786 440 L 796 450 L 796 515 L 728 515 L 728 440"/></g><g transform="translate(-46,-38) scale(1,1)"><path fill="none" stroke="#000000" d="M 728 440 L 786 440 L 796 450 L 796 515 L 728 515 L 728 440 L 728 440" stroke-miterlimit="10"/></g><g transform="translate(-46,-38) scale(1,1)"><path fill="none" stroke="#000000" d="M 786 440 L 786 450 L 796 450 L 786 440" stroke-miterlimit="10"/></g><g transform="translate(-46,-38) scale(1,1)"><g><path fill="none" stroke="none"/><text fill="#000000" stroke="none" font-family="Arial" font-size="13px" font-style="normal" font-weight="normal" text-decoration="none" x="733" y="458">Github</text><text fill="#000000" stroke="none" font-family="Arial" font-size="13px" font-style="normal" font-weight="normal" text-decoration="none" x="733" y="471">code</text><text fill="#000000" stroke="none" font-family="Arial" font-size="13px" font-style="normal" font-weight="normal" text-decoration="none" x="733" y="484">tested by</text><text fill="#000000" stroke="none" font-family="Arial" font-size="13px" font-style="normal" font-weight="normal" text-decoration="none" x="733" y="497">Jenkins</text></g></g><g transform="translate(-46,-38) scale(1,1)"><path fill="none" stroke="#000000" d="M 767 439 L 789 249" stroke-miterlimit="10" stroke-dasharray="3"/></g></g></svg>