<svg version="1.1" xmlns="http://www.w3.org/2000/svg" xmlns:xlink="http://www.w3.org/1999/xlink" width="500" height="436"><defs/><g><text fill="#eeeeee" stroke="none" font-family="Arial" font-size="24px" font-style="normal" font-weight="normal" text-decoration="none" x="0" y="0">UNREGISTERED</text><text fill="#eeeeee" stroke="none" font-family="Arial" font-size="24px" font-style="normal" font-weight="normal" text-decoration="none" x="0" y="30">UNREGISTERED</text><text fill="#eeeeee" stroke="none" font-family="Arial" font-size="24px" font-style="normal" font-weight="normal" text-decoration="none" x="0" y="60">UNREGISTERED</text><text fill="#eeeeee" stroke="none" font-family="Arial" font-size="24px" font-style="normal" font-weight="normal" text-decoration="none" x="0" y="90">UNREGISTERED</text><text fill="#eeeeee" stroke="none" font-family="Arial" font-size="24px" font-style="normal" font-weight="normal" text-decoration="none" x="0" y="120">UNREGISTERED</text><text fill="#eeeeee" stroke="none" font-family="Arial" font-size="24px" font-style="normal" font-weight="normal" text-decoration="none" x="0" y="150">UNREGISTERED</text><text fill="#eeeeee" stroke="none" font-family="Arial" font-size="24px" font-style="normal" font-weight="normal" text-decoration="none" x="0" y="180">UNREGISTERED</text><text fill="#eeeeee" stroke="none" font-family="Arial" font-size="24px" font-style="normal" font-weight="normal" text-decoration="none" x="0" y="210">UNREGISTERED</text><text fill="#eeeeee" stroke="none" font-family="Arial" font-size="24px" font-style="normal" font-weight="normal" text-decoration="none" x="0" y="240">UNREGISTERED</text><text fill="#eeeeee" stroke="none" font-family="Arial" font-size="24px" font-style="normal" font-weight="normal" text-decoration="none" x="0" y="270">UNREGISTERED</text><text fill="#eeeeee" stroke="none" font-family="Arial" font-size="24px" font-style="normal" font-weight="normal" text-decoration="none" x="0" y="300">UNREGISTERED</text><text fill="#eeeeee" stroke="none" font-family="Arial" font-size="24px" font-style="normal" font-weight="normal" text-decoration="none" x="0" y="330">UNREGISTERED</text><text fill="#eeeeee" stroke="none" font-family="Arial" font-size="24px" font-style="normal" font-weight="normal" text-decoration="none" x="0" y="360">UNREGISTERED</text><text fill="#eeeeee" stroke="none" font-family="Arial" font-size="24px" font-style="normal" font-weight="normal" text-decoration="none" x="0" y="390">UNREGISTERED</text><text fill="#eeeeee" stroke="none" font-family="Arial" font-size="24px" font-style="normal" font-weight="normal" text-decoration="none" x="0" y="420">UNREGISTERED</text><text fill="#eeeeee" stroke="none" font-family="Arial" font-size="24px" font-style="normal" font-weight="normal" text-decoration="none" x="200" y="0">UNREGISTERED</text><text fill="#eeeeee" stroke="none" font-family="Arial" font-size="24px" font-style="normal" font-weight="normal" text-decoration="none" x="200" y="30">UNREGISTERED</text><text fill="#eeeeee" stroke="none" font-family="Arial" font-size="24px" font-style="normal" font-weight="normal" text-decoration="none" x="200" y="60">UNREGISTERED</text><text fill="#eeeeee" stroke="none" font-family="Arial" font-size="24px" font-style="normal" font-weight="normal" text-decoration="none" x="200" y="90">UNREGISTERED</text><text fill="#eeeeee" stroke="none" font-family="Arial" font-size="24px" font-style="normal" font-weight="normal" text-decoration="none" x="200" y="120">UNREGISTERED</text><text fill="#eeeeee" stroke="none" font-family="Arial" font-size="24px" font-style="normal" font-weight="normal" text-decoration="none" x="200" y="150">UNREGISTERED</text><text fill="#eeeeee" stroke="none" font-family="Arial" font-size="24px" font-style="normal" font-weight="normal" text-decoration="none" x="200" y="180">UNREGISTERED</text><text fill="#eeeeee" stroke="none" font-family="Arial" font-size="24px" font-style="normal" font-weight="normal" text-decoration="none" x="200" y="210">UNREGISTERED</text><text fill="#eeeeee" stroke="none" font-family="Arial" font-size="24px" font-style="normal" font-weight="normal" text-decoration="none" x="200" y="240">UNREGISTERED</text><text fill="#eeeeee" stroke="none" font-family="Arial" font-size="24px" font-style="normal" font-weight="normal" text-decoration="none" x="200" y="270">UNREGISTERED</text><text fill="#eeeeee" stroke="none" font-family="Arial" font-size="24px" font-style="normal" font-weight="normal" text-decoration="none" x="200" y="300">UNREGISTERED</text><text fill="#eeeeee" stroke="none" font-family="Arial" font-size="24px" font-style="normal" font-weight="normal" text-decoration="none" x="200" y="330">UNREGISTERED</text><text fill="#eeeeee" stroke="none" font-family="Arial" font-size="24px" font-style="normal" font-weight="normal" text-decoration="none" x="200" y="360">UNREGISTERED</text><text fill="#eeeeee" stroke="none" font-family="Arial" font-size="24px" font-style="normal" font-weight="normal" text-decoration="none" x="200" y="390">UNREGISTERED</text><text fill="#eeeeee" stroke="none" font-family="Arial" font-size="24px" font-style="normal" font-weight="normal" text-decoration="none" x="200" y="420">UNREGISTERED</text><text fill="#eeeeee" stroke="none" font-family="Arial" font-size="24px" font-style="normal" font-weight="normal" text-decoration="none" x="400" y="0">UNREGISTERED</text><text fill="#eeeeee" stroke="none" font-family="Arial" font-size="24px" font-style="normal" font-weight="normal" text-decoration="none" x="400" y="30">UNREGISTERED</text><text fill="#eeeeee" stroke="none" font-family="Arial" font-size="24px" font-style="normal" font-weight="normal" text-decoration="none" x="400" y="60">UNREGISTERED</text><text fill="#eeeeee" stroke="none" font-family="Arial" font-size="24px" font-style="normal" font-weight="normal" text-decoration="none" x="400" y="90">UNREGISTERED</text><text fill="#eeeeee" stroke="none" font-family="Arial" font-size="24px" font-style="normal" font-weight="normal" text-decoration="none" x="400" y="120">UNREGISTERED</text><text fill="#eeeeee" stroke="none" font-family="Arial" font-size="24px" font-style="normal" font-weight="normal" text-decoration="none" x="400" y="150">UNREGISTERED</text><text fill="#eeeeee" stroke="none" font-family="Arial" font-size="24px" font-style="normal" font-weight="normal" text-decoration="none" x="400" y="180">UNREGISTERED</text><text fill="#eeeeee" stroke="none" font-family="Arial" font-size="24px" font-style="normal" font-weight="normal" text-decoration="none" x="400" y="210">UNREGISTERED</text><text fill="#eeeeee" stroke="none" font-family="Arial" font-size="24px" font-style="normal" font-weight="normal" text-decoration="none" x="400" y="240">UNREGISTERED</text><text fill="#eeeeee" stroke="none" font-family="Arial" font-size="24px" font-style="normal" font-weight="normal" text-decoration="none" x="400" y="270">UNREGISTERED</text><text fill="#eeeeee" stroke="none" font-family="Arial" font-size="24px" font-style="normal" font-weight="normal" text-decoration="none" x="400" y="300">UNREGISTERED</text><text fill="#eeeeee" stroke="none" font-family="Arial" font-size="24px" font-style="normal" font-weight="normal" text-decoration="none" x="400" y="330">UNREGISTERED</text><text fill="#eeeeee" stroke="none" font-family="Arial" font-size="24px" font-style="normal" font-weight="normal" text-decoration="none" x="400" y="360">UNREGISTERED</text><text fill="#eeeeee" stroke="none" font-family="Arial" font-size="24px" font-style="normal" font-weight="normal" text-decoration="none" x="400" y="390">UNREGISTERED</text><text fill="#eeeeee" stroke="none" font-family="Arial" font-size="24px" font-style="normal" font-weight="normal" text-decoration="none" x="400" y="420">UNREGISTERED</text><g transform="translate(-102,-86) scale(1,1)"><rect fill="#C0C0C0" stroke="none" x="119" y="103" width="64" height="15" opacity="0.2"/></g><g transform="translate(-102,-86) scale(1,1)"><rect fill="#C0C0C0" stroke="none" x="119" y="117" width="160" height="146" opacity="0.2"/></g><g transform="translate(-102,-86) scale(1,1)"><rect fill="#ffffff" stroke="none" x="112" y="111" width="160" height="145"/></g><g transform="translate(-102,-86) scale(1,1)"><path fill="none" stroke="#000000" d="M 112 111 L 272 111 L 272 256 L 112 256 L 112 111 Z Z" stroke-miterlimit="10"/></g><g transform="translate(-102,-86) scale(1,1)"><rect fill="#ffffff" stroke="none" x="112" y="96" width="64" height="15"/></g><g transform="translate(-102,-86) scale(1,1)"><path fill="none" stroke="#000000" d="M 112 96 L 176 96 L 176 111 L 112 111 L 112 96 Z Z" stroke-miterlimit="10"/></g><g transform="translate(-102,-86) scale(1,1)"><rect fill="#ffffff" stroke="none" x="112" y="110" width="160" height="146"/></g><g transform="translate(-102,-86) scale(1,1)"><path fill="none" stroke="#000000" d="M 112 110 L 272 110 L 272 256 L 112 256 L 112 110 Z Z" stroke-miterlimit="10"/></g><g transform="translate(-102,-86) scale(1,1)"><g><path fill="none" stroke="none"/><text fill="#000000" stroke="none" font-family="Arial" font-size="13px" font-style="normal" font-weight="bold" text-decoration="none" x="177.911376953125" y="130.5">main</text></g></g><g transform="translate(-102,-86) scale(1,1)"><rect fill="#C0C0C0" stroke="none" x="439" y="103" width="64" height="15" opacity="0.2"/></g><g transform="translate(-102,-86) scale(1,1)"><rect fill="#C0C0C0" stroke="none" x="439" y="117" width="160" height="146" opacity="0.2"/></g><g transform="translate(-102,-86) scale(1,1)"><rect fill="#ffffff" stroke="none" x="432" y="111" width="160" height="145"/></g><g transform="translate(-102,-86) scale(1,1)"><path fill="none" stroke="#000000" d="M 432 111 L 592 111 L 592 256 L 432 256 L 432 111 Z Z" stroke-miterlimit="10"/></g><g transform="translate(-102,-86) scale(1,1)"><rect fill="#ffffff" stroke="none" x="432" y="96" width="64" height="15"/></g><g transform="translate(-102,-86) scale(1,1)"><path fill="none" stroke="#000000" d="M 432 96 L 496 96 L 496 111 L 432 111 L 432 96 Z Z" stroke-miterlimit="10"/></g><g transform="translate(-102,-86) scale(1,1)"><rect fill="#ffffff" stroke="none" x="432" y="110" width="160" height="146"/></g><g transform="translate(-102,-86) scale(1,1)"><path fill="none" stroke="#000000" d="M 432 110 L 592 110 L 592 256 L 432 256 L 432 110 Z Z" stroke-miterlimit="10"/></g><g transform="translate(-102,-86) scale(1,1)"><g><path fill="none" stroke="none"/><text fill="#000000" stroke="none" font-family="Arial" font-size="13px" font-style="normal" font-weight="bold" text-decoration="none" x="494.29638671875" y="130.5">model</text></g></g><g transform="translate(-102,-86) scale(1,1)"><rect fill="#C0C0C0" stroke="none" x="287" y="359" width="64" height="15" opacity="0.2"/></g><g transform="translate(-102,-86) scale(1,1)"><rect fill="#C0C0C0" stroke="none" x="287" y="373" width="160" height="146" opacity="0.2"/></g><g transform="translate(-102,-86) scale(1,1)"><rect fill="#ffffff" stroke="none" x="280" y="367" width="160" height="145"/></g><g transform="translate(-102,-86) scale(1,1)"><path fill="none" stroke="#000000" d="M 280 367 L 440 367 L 440 512 L 280 512 L 280 367 Z Z" stroke-miterlimit="10"/></g><g transform="translate(-102,-86) scale(1,1)"><rect fill="#ffffff" stroke="none" x="280" y="352" width="64" height="15"/></g><g transform="translate(-102,-86) scale(1,1)"><path fill="none" stroke="#000000" d="M 280 352 L 344 352 L 344 367 L 280 367 L 280 352 Z Z" stroke-miterlimit="10"/></g><g transform="translate(-102,-86) scale(1,1)"><rect fill="#ffffff" stroke="none" x="280" y="366" width="160" height="146"/></g><g transform="translate(-102,-86) scale(1,1)"><path fill="none" stroke="#000000" d="M 280 366 L 440 366 L 440 512 L 280 512 L 280 366 Z Z" stroke-miterlimit="10"/></g><g transform="translate(-102,-86) scale(1,1)"><g><path fill="none" stroke="none"/><text fill="#000000" stroke="none" font-family="Arial" font-size="13px" font-style="normal" font-weight="bold" text-decoration="none" x="346.996826171875" y="386.5">view</text></g></g><g transform="translate(-102,-86) scale(1,1)"><path fill="none" stroke="#000000" d="M 245 257 L 307 351" stroke-miterlimit="10" stroke-dasharray="3"/></g><g transform="translate(-102,-86) scale(1,1)"><path fill="none" stroke="#000000" d="M 297.8904942046924 344.8342150406248 L 307 351 L 304.918475034992 340.1987383227676" stroke-miterlimit="10"/></g><g transform="translate(-102,-86) scale(1,1)"><path fill="none" stroke="#000000" d="M 307 351 L 245 257" stroke-miterlimit="10" stroke-dasharray="3"/></g><g transform="translate(-102,-86) scale(1,1)"><path fill="none" stroke="#000000" d="M 254.10950579530763 263.1657849593752 L 245 257 L 247.081524965008 267.8012616772324" stroke-miterlimit="10"/></g><g transform="translate(-102,-86) scale(1,1)"><path fill="none" stroke="#000000" d="M 273 176 L 431 176" stroke-miterlimit="10" stroke-dasharray="3"/></g><g transform="translate(-102,-86) scale(1,1)"><path fill="none" stroke="#000000" d="M 420.83732514237585 180.209517756016 L 431 176 L 420.83732514237585 171.790482243984" stroke-miterlimit="10"/></g><g transform="translate(-102,-86) scale(1,1)"><path fill="none" stroke="#000000" d="M 431 176 L 273 176" stroke-miterlimit="10" stroke-dasharray="3"/></g><g transform="translate(-102,-86) scale(1,1)"><path fill="none" stroke="#000000" d="M 283.16267485762415 171.790482243984 L 273 176 L 283.16267485762415 180.209517756016" stroke-miterlimit="10"/></g><g transform="translate(-102,-86) scale(1,1)"><path fill="none" stroke="#000000" d="M 464 257 L 408 351" stroke-miterlimit="10" stroke-dasharray="3"/></g><g transform="translate(-102,-86) scale(1,1)"><path fill="none" stroke="#000000" d="M 409.58490638163096 340.1147773673909 L 408 351 L 416.81771278824027 344.4236833117539" stroke-miterlimit="10"/></g><g transform="translate(-102,-86) scale(1,1)"><path fill="none" stroke="#000000" d="M 408 351 L 464 257" stroke-miterlimit="10" stroke-dasharray="3"/></g><g transform="translate(-102,-86) scale(1,1)"><path fill="none" stroke="#000000" d="M 462.41509361836904 267.8852226326091 L 464 257 L 455.18228721175973 263.5763166882461" stroke-miterlimit="10"/></g></g></svg>