<svg version="1.1" xmlns="http://www.w3.org/2000/svg" xmlns:xlink="http://www.w3.org/1999/xlink" width="295.13720703125" height="312"><defs/><g><text fill="#eeeeee" stroke="none" font-family="Arial" font-size="24px" font-style="normal" font-weight="normal" text-decoration="none" x="0" y="0">UNREGISTERED</text><text fill="#eeeeee" stroke="none" font-family="Arial" font-size="24px" font-style="normal" font-weight="normal" text-decoration="none" x="0" y="30">UNREGISTERED</text><text fill="#eeeeee" stroke="none" font-family="Arial" font-size="24px" font-style="normal" font-weight="normal" text-decoration="none" x="0" y="60">UNREGISTERED</text><text fill="#eeeeee" stroke="none" font-family="Arial" font-size="24px" font-style="normal" font-weight="normal" text-decoration="none" x="0" y="90">UNREGISTERED</text><text fill="#eeeeee" stroke="none" font-family="Arial" font-size="24px" font-style="normal" font-weight="normal" text-decoration="none" x="0" y="120">UNREGISTERED</text><text fill="#eeeeee" stroke="none" font-family="Arial" font-size="24px" font-style="normal" font-weight="normal" text-decoration="none" x="0" y="150">UNREGISTERED</text><text fill="#eeeeee" stroke="none" font-family="Arial" font-size="24px" font-style="normal" font-weight="normal" text-decoration="none" x="0" y="180">UNREGISTERED</text><text fill="#eeeeee" stroke="none" font-family="Arial" font-size="24px" font-style="normal" font-weight="normal" text-decoration="none" x="0" y="210">UNREGISTERED</text><text fill="#eeeeee" stroke="none" font-family="Arial" font-size="24px" font-style="normal" font-weight="normal" text-decoration="none" x="0" y="240">UNREGISTERED</text><text fill="#eeeeee" stroke="none" font-family="Arial" font-size="24px" font-style="normal" font-weight="normal" text-decoration="none" x="0" y="270">UNREGISTERED</text><text fill="#eeeeee" stroke="none" font-family="Arial" font-size="24px" font-style="normal" font-weight="normal" text-decoration="none" x="0" y="300">UNREGISTERED</text><text fill="#eeeeee" stroke="none" font-family="Arial" font-size="24px" font-style="normal" font-weight="normal" text-decoration="none" x="200" y="0">UNREGISTERED</text><text fill="#eeeeee" stroke="none" font-family="Arial" font-size="24px" font-style="normal" font-weight="normal" text-decoration="none" x="200" y="30">UNREGISTERED</text><text fill="#eeeeee" stroke="none" font-family="Arial" font-size="24px" font-style="normal" font-weight="normal" text-decoration="none" x="200" y="60">UNREGISTERED</text><text fill="#eeeeee" stroke="none" font-family="Arial" font-size="24px" font-style="normal" font-weight="normal" text-decoration="none" x="200" y="90">UNREGISTERED</text><text fill="#eeeeee" stroke="none" font-family="Arial" font-size="24px" font-style="normal" font-weight="normal" text-decoration="none" x="200" y="120">UNREGISTERED</text><text fill="#eeeeee" stroke="none" font-family="Arial" font-size="24px" font-style="normal" font-weight="normal" text-decoration="none" x="200" y="150">UNREGISTERED</text><text fill="#eeeeee" stroke="none" font-family="Arial" font-size="24px" font-style="normal" font-weight="normal" text-decoration="none" x="200" y="180">UNREGISTERED</text><text fill="#eeeeee" stroke="none" font-family="Arial" font-size="24px" font-style="normal" font-weight="normal" text-decoration="none" x="200" y="210">UNREGISTERED</text><text fill="#eeeeee" stroke="none" font-family="Arial" font-size="24px" font-style="normal" font-weight="normal" text-decoration="none" x="200" y="240">UNREGISTERED</text><text fill="#eeeeee" stroke="none" font-family="Arial" font-size="24px" font-style="normal" font-weight="normal" text-decoration="none" x="200" y="270">UNREGISTERED</text><text fill="#eeeeee" stroke="none" font-family="Arial" font-size="24px" font-style="normal" font-weight="normal" text-decoration="none" x="200" y="300">UNREGISTERED</text><g transform="translate(-44,-20) scale(1,1)"><rect fill="#C0C0C0" stroke="none" x="61" y="37" width="38.854882812499994" height="15" opacity="0.2"/></g><g transform="translate(-44,-20) scale(1,1)"><rect fill="#C0C0C0" stroke="none" x="61" y="51" width="97.13720703125" height="92" opacity="0.2"/></g><g transform="translate(-44,-20) scale(1,1)"><rect fill="#ffffff" stroke="none" x="54" y="45" width="97.13720703125" height="91"/></g><g transform="translate(-44,-20) scale(1,1)"><path fill="none" stroke="#000000" d="M 54 45 L 151.13720703125 45 L 151.13720703125 136 L 54 136 L 54 45 Z Z" stroke-miterlimit="10"/></g><g transform="translate(-44,-20) scale(1,1)"><rect fill="#ffffff" stroke="none" x="54" y="30" width="38.854882812499994" height="15"/></g><g transform="translate(-44,-20) scale(1,1)"><path fill="none" stroke="#000000" d="M 54 30 L 92.8548828125 30 L 92.8548828125 45 L 54 45 L 54 30 Z Z" stroke-miterlimit="10"/></g><g transform="translate(-44,-20) scale(1,1)"><rect fill="#ffffff" stroke="none" x="54" y="44" width="97.13720703125" height="92"/></g><g transform="translate(-44,-20) scale(1,1)"><path fill="none" stroke="#000000" d="M 54 44 L 151.13720703125 44 L 151.13720703125 136 L 54 136 L 54 44 Z Z" stroke-miterlimit="10"/></g><g transform="translate(-44,-20) scale(1,1)"><g><path fill="none" stroke="none"/><text fill="#000000" stroke="none" font-family="Arial" font-size="13px" font-style="normal" font-weight="bold" text-decoration="none" x="88.47998046875" y="64.5">main</text></g></g><g transform="translate(-44,-20) scale(1,1)"><rect fill="#C0C0C0" stroke="none" x="239" y="39" width="38.85488281250002" height="15" opacity="0.2"/></g><g transform="translate(-44,-20) scale(1,1)"><rect fill="#C0C0C0" stroke="none" x="239" y="53" width="97.13720703125" height="92" opacity="0.2"/></g><g transform="translate(-44,-20) scale(1,1)"><rect fill="#ffffff" stroke="none" x="232" y="47" width="97.13720703125" height="91"/></g><g transform="translate(-44,-20) scale(1,1)"><path fill="none" stroke="#000000" d="M 232 47 L 329.13720703125 47 L 329.13720703125 138 L 232 138 L 232 47 Z Z" stroke-miterlimit="10"/></g><g transform="translate(-44,-20) scale(1,1)"><rect fill="#ffffff" stroke="none" x="232" y="32" width="38.85488281250002" height="15"/></g><g transform="translate(-44,-20) scale(1,1)"><path fill="none" stroke="#000000" d="M 232 32 L 270.8548828125 32 L 270.8548828125 47 L 232 47 L 232 32 Z Z" stroke-miterlimit="10"/></g><g transform="translate(-44,-20) scale(1,1)"><rect fill="#ffffff" stroke="none" x="232" y="46" width="97.13720703125" height="92"/></g><g transform="translate(-44,-20) scale(1,1)"><path fill="none" stroke="#000000" d="M 232 46 L 329.13720703125 46 L 329.13720703125 138 L 232 138 L 232 46 Z Z" stroke-miterlimit="10"/></g><g transform="translate(-44,-20) scale(1,1)"><g><path fill="none" stroke="none"/><text fill="#000000" stroke="none" font-family="Arial" font-size="13px" font-style="normal" font-weight="bold" text-decoration="none" x="262.864990234375" y="66.5">model</text></g></g><g transform="translate(-44,-20) scale(1,1)"><rect fill="#C0C0C0" stroke="none" x="143" y="223" width="38.854882812499994" height="15" opacity="0.2"/></g><g transform="translate(-44,-20) scale(1,1)"><rect fill="#C0C0C0" stroke="none" x="143" y="237" width="97.13720703125" height="92" opacity="0.2"/></g><g transform="translate(-44,-20) scale(1,1)"><rect fill="#ffffff" stroke="none" x="136" y="231" width="97.13720703125" height="91"/></g><g transform="translate(-44,-20) scale(1,1)"><path fill="none" stroke="#000000" d="M 136 231 L 233.13720703125 231 L 233.13720703125 322 L 136 322 L 136 231 Z Z" stroke-miterlimit="10"/></g><g transform="translate(-44,-20) scale(1,1)"><rect fill="#ffffff" stroke="none" x="136" y="216" width="38.854882812499994" height="15"/></g><g transform="translate(-44,-20) scale(1,1)"><path fill="none" stroke="#000000" d="M 136 216 L 174.8548828125 216 L 174.8548828125 231 L 136 231 L 136 216 Z Z" stroke-miterlimit="10"/></g><g transform="translate(-44,-20) scale(1,1)"><rect fill="#ffffff" stroke="none" x="136" y="230" width="97.13720703125" height="92"/></g><g transform="translate(-44,-20) scale(1,1)"><path fill="none" stroke="#000000" d="M 136 230 L 233.13720703125 230 L 233.13720703125 322 L 136 322 L 136 230 Z Z" stroke-miterlimit="10"/></g><g transform="translate(-44,-20) scale(1,1)"><g><path fill="none" stroke="none"/><text fill="#000000" stroke="none" font-family="Arial" font-size="13px" font-style="normal" font-weight="bold" text-decoration="none" x="144.832275390625" y="250.5">viewcontroller</text></g></g><g transform="translate(-44,-20) scale(1,1)"><path fill="none" stroke="#000000" d="M 152 84 L 231 84" stroke-miterlimit="10" stroke-dasharray="3"/></g><g transform="translate(-44,-20) scale(1,1)"><path fill="none" stroke="#000000" d="M 220.83732514237585 88.20951775601598 L 231 84 L 220.83732514237585 79.79048224398402" stroke-miterlimit="10"/></g><g transform="translate(-44,-20) scale(1,1)"><path fill="none" stroke="#000000" d="M 231 84 L 152 84" stroke-miterlimit="10" stroke-dasharray="3"/></g><g transform="translate(-44,-20) scale(1,1)"><path fill="none" stroke="#000000" d="M 162.16267485762415 79.79048224398402 L 152 84 L 162.16267485762415 88.20951775601598" stroke-miterlimit="10"/></g><g transform="translate(-44,-20) scale(1,1)"><path fill="none" stroke="#000000" d="M 126 137 L 160 215" stroke-miterlimit="10" stroke-dasharray="3"/></g><g transform="translate(-44,-20) scale(1,1)"><path fill="none" stroke="#000000" d="M 152.0802953531616 207.3659788900707 L 160 215 L 159.79799123377825 204.00185504467368" stroke-miterlimit="10"/></g><g transform="translate(-44,-20) scale(1,1)"><path fill="none" stroke="#000000" d="M 160 215 L 126 137" stroke-miterlimit="10" stroke-dasharray="3"/></g><g transform="translate(-44,-20) scale(1,1)"><path fill="none" stroke="#000000" d="M 133.9197046468384 144.6340211099293 L 126 137 L 126.20200876622177 147.99814495532632" stroke-miterlimit="10"/></g><g transform="translate(-44,-20) scale(1,1)"><path fill="none" stroke="#000000" d="M 212 215 L 252 139" stroke-miterlimit="10" stroke-dasharray="3"/></g><g transform="translate(-44,-20) scale(1,1)"><path fill="none" stroke="#000000" d="M 250.99184940676284 149.95370404846486 L 252 139 L 243.54169146728472 146.0325682908448" stroke-miterlimit="10"/></g><g transform="translate(-44,-20) scale(1,1)"><path fill="none" stroke="#000000" d="M 252 139 L 212 215" stroke-miterlimit="10" stroke-dasharray="3"/></g><g transform="translate(-44,-20) scale(1,1)"><path fill="none" stroke="#000000" d="M 213.00815059323716 204.04629595153514 L 212 215 L 220.45830853271528 207.9674317091552" stroke-miterlimit="10"/></g></g></svg>