<svg version="1.1" xmlns="http://www.w3.org/2000/svg" xmlns:xlink="http://www.w3.org/1999/xlink" width="715" height="708"><defs/><g><text fill="#eeeeee" stroke="none" font-family="Arial" font-size="24px" font-style="normal" font-weight="normal" text-decoration="none" x="0" y="0">UNREGISTERED</text><text fill="#eeeeee" stroke="none" font-family="Arial" font-size="24px" font-style="normal" font-weight="normal" text-decoration="none" x="0" y="30">UNREGISTERED</text><text fill="#eeeeee" stroke="none" font-family="Arial" font-size="24px" font-style="normal" font-weight="normal" text-decoration="none" x="0" y="60">UNREGISTERED</text><text fill="#eeeeee" stroke="none" font-family="Arial" font-size="24px" font-style="normal" font-weight="normal" text-decoration="none" x="0" y="90">UNREGISTERED</text><text fill="#eeeeee" stroke="none" font-family="Arial" font-size="24px" font-style="normal" font-weight="normal" text-decoration="none" x="0" y="120">UNREGISTERED</text><text fill="#eeeeee" stroke="none" font-family="Arial" font-size="24px" font-style="normal" font-weight="normal" text-decoration="none" x="0" y="150">UNREGISTERED</text><text fill="#eeeeee" stroke="none" font-family="Arial" font-size="24px" font-style="normal" font-weight="normal" text-decoration="none" x="0" y="180">UNREGISTERED</text><text fill="#eeeeee" stroke="none" font-family="Arial" font-size="24px" font-style="normal" font-weight="normal" text-decoration="none" x="0" y="210">UNREGISTERED</text><text fill="#eeeeee" stroke="none" font-family="Arial" font-size="24px" font-style="normal" font-weight="normal" text-decoration="none" x="0" y="240">UNREGISTERED</text><text fill="#eeeeee" stroke="none" font-family="Arial" font-size="24px" font-style="normal" font-weight="normal" text-decoration="none" x="0" y="270">UNREGISTERED</text><text fill="#eeeeee" stroke="none" font-family="Arial" font-size="24px" font-style="normal" font-weight="normal" text-decoration="none" x="0" y="300">UNREGISTERED</text><text fill="#eeeeee" stroke="none" font-family="Arial" font-size="24px" font-style="normal" font-weight="normal" text-decoration="none" x="0" y="330">UNREGISTERED</text><text fill="#eeeeee" stroke="none" font-family="Arial" font-size="24px" font-style="normal" font-weight="normal" text-decoration="none" x="0" y="360">UNREGISTERED</text><text fill="#eeeeee" stroke="none" font-family="Arial" font-size="24px" font-style="normal" font-weight="normal" text-decoration="none" x="0" y="390">UNREGISTERED</text><text fill="#eeeeee" stroke="none" font-family="Arial" font-size="24px" font-style="normal" font-weight="normal" text-decoration="none" x="0" y="420">UNREGISTERED</text><text fill="#eeeeee" stroke="none" font-family="Arial" font-size="24px" font-style="normal" font-weight="normal" text-decoration="none" x="0" y="450">UNREGISTERED</text><text fill="#eeeeee" stroke="none" font-family="Arial" font-size="24px" font-style="normal" font-weight="normal" text-decoration="none" x="0" y="480">UNREGISTERED</text><text fill="#eeeeee" stroke="none" font-family="Arial" font-size="24px" font-style="normal" font-weight="normal" text-decoration="none" x="0" y="510">UNREGISTERED</text><text fill="#eeeeee" stroke="none" font-family="Arial" font-size="24px" font-style="normal" font-weight="normal" text-decoration="none" x="0" y="540">UNREGISTERED</text><text fill="#eeeeee" stroke="none" font-family="Arial" font-size="24px" font-style="normal" font-weight="normal" text-decoration="none" x="0" y="570">UNREGISTERED</text><text fill="#eeeeee" stroke="none" font-family="Arial" font-size="24px" font-style="normal" font-weight="normal" text-decoration="none" x="0" y="600">UNREGISTERED</text><text fill="#eeeeee" stroke="none" font-family="Arial" font-size="24px" font-style="normal" font-weight="normal" text-decoration="none" x="0" y="630">UNREGISTERED</text><text fill="#eeeeee" stroke="none" font-family="Arial" font-size="24px" font-style="normal" font-weight="normal" text-decoration="none" x="0" y="660">UNREGISTERED</text><text fill="#eeeeee" stroke="none" font-family="Arial" font-size="24px" font-style="normal" font-weight="normal" text-decoration="none" x="0" y="690">UNREGISTERED</text><text fill="#eeeeee" stroke="none" font-family="Arial" font-size="24px" font-style="normal" font-weight="normal" text-decoration="none" x="200" y="0">UNREGISTERED</text><text fill="#eeeeee" stroke="none" font-family="Arial" font-size="24px" font-style="normal" font-weight="normal" text-decoration="none" x="200" y="30">UNREGISTERED</text><text fill="#eeeeee" stroke="none" font-family="Arial" font-size="24px" font-style="normal" font-weight="normal" text-decoration="none" x="200" y="60">UNREGISTERED</text><text fill="#eeeeee" stroke="none" font-family="Arial" font-size="24px" font-style="normal" font-weight="normal" text-decoration="none" x="200" y="90">UNREGISTERED</text><text fill="#eeeeee" stroke="none" font-family="Arial" font-size="24px" font-style="normal" font-weight="normal" text-decoration="none" x="200" y="120">UNREGISTERED</text><text fill="#eeeeee" stroke="none" font-family="Arial" font-size="24px" font-style="normal" font-weight="normal" text-decoration="none" x="200" y="150">UNREGISTERED</text><text fill="#eeeeee" stroke="none" font-family="Arial" font-size="24px" font-style="normal" font-weight="normal" text-decoration="none" x="200" y="180">UNREGISTERED</text><text fill="#eeeeee" stroke="none" font-family="Arial" font-size="24px" font-style="normal" font-weight="normal" text-decoration="none" x="200" y="210">UNREGISTERED</text><text fill="#eeeeee" stroke="none" font-family="Arial" font-size="24px" font-style="normal" font-weight="normal" text-decoration="none" x="200" y="240">UNREGISTERED</text><text fill="#eeeeee" stroke="none" font-family="Arial" font-size="24px" font-style="normal" font-weight="normal" text-decoration="none" x="200" y="270">UNREGISTERED</text><text fill="#eeeeee" stroke="none" font-family="Arial" font-size="24px" font-style="normal" font-weight="normal" text-decoration="none" x="200" y="300">UNREGISTERED</text><text fill="#eeeeee" stroke="none" font-family="Arial" font-size="24px" font-style="normal" font-weight="normal" text-decoration="none" x="200" y="330">UNREGISTERED</text><text fill="#eeeeee" stroke="none" font-family="Arial" font-size="24px" font-style="normal" font-weight="normal" text-decoration="none" x="200" y="360">UNREGISTERED</text><text fill="#eeeeee" stroke="none" font-family="Arial" font-size="24px" font-style="normal" font-weight="normal" text-decoration="none" x="200" y="390">UNREGISTERED</text><text fill="#eeeeee" stroke="none" font-family="Arial" font-size="24px" font-style="normal" font-weight="normal" text-decoration="none" x="200" y="420">UNREGISTERED</text><text fill="#eeeeee" stroke="none" font-family="Arial" font-size="24px" font-style="normal" font-weight="normal" text-decoration="none" x="200" y="450">UNREGISTERED</text><text fill="#eeeeee" stroke="none" font-family="Arial" font-size="24px" font-style="normal" font-weight="normal" text-decoration="none" x="200" y="480">UNREGISTERED</text><text fill="#eeeeee" stroke="none" font-family="Arial" font-size="24px" font-style="normal" font-weight="normal" text-decoration="none" x="200" y="510">UNREGISTERED</text><text fill="#eeeeee" stroke="none" font-family="Arial" font-size="24px" font-style="normal" font-weight="normal" text-decoration="none" x="200" y="540">UNREGISTERED</text><text fill="#eeeeee" stroke="none" font-family="Arial" font-size="24px" font-style="normal" font-weight="normal" text-decoration="none" x="200" y="570">UNREGISTERED</text><text fill="#eeeeee" stroke="none" font-family="Arial" font-size="24px" font-style="normal" font-weight="normal" text-decoration="none" x="200" y="600">UNREGISTERED</text><text fill="#eeeeee" stroke="none" font-family="Arial" font-size="24px" font-style="normal" font-weight="normal" text-decoration="none" x="200" y="630">UNREGISTERED</text><text fill="#eeeeee" stroke="none" font-family="Arial" font-size="24px" font-style="normal" font-weight="normal" text-decoration="none" x="200" y="660">UNREGISTERED</text><text fill="#eeeeee" stroke="none" font-family="Arial" font-size="24px" font-style="normal" font-weight="normal" text-decoration="none" x="200" y="690">UNREGISTERED</text><text fill="#eeeeee" stroke="none" font-family="Arial" font-size="24px" font-style="normal" font-weight="normal" text-decoration="none" x="400" y="0">UNREGISTERED</text><text fill="#eeeeee" stroke="none" font-family="Arial" font-size="24px" font-style="normal" font-weight="normal" text-decoration="none" x="400" y="30">UNREGISTERED</text><text fill="#eeeeee" stroke="none" font-family="Arial" font-size="24px" font-style="normal" font-weight="normal" text-decoration="none" x="400" y="60">UNREGISTERED</text><text fill="#eeeeee" stroke="none" font-family="Arial" font-size="24px" font-style="normal" font-weight="normal" text-decoration="none" x="400" y="90">UNREGISTERED</text><text fill="#eeeeee" stroke="none" font-family="Arial" font-size="24px" font-style="normal" font-weight="normal" text-decoration="none" x="400" y="120">UNREGISTERED</text><text fill="#eeeeee" stroke="none" font-family="Arial" font-size="24px" font-style="normal" font-weight="normal" text-decoration="none" x="400" y="150">UNREGISTERED</text><text fill="#eeeeee" stroke="none" font-family="Arial" font-size="24px" font-style="normal" font-weight="normal" text-decoration="none" x="400" y="180">UNREGISTERED</text><text fill="#eeeeee" stroke="none" font-family="Arial" font-size="24px" font-style="normal" font-weight="normal" text-decoration="none" x="400" y="210">UNREGISTERED</text><text fill="#eeeeee" stroke="none" font-family="Arial" font-size="24px" font-style="normal" font-weight="normal" text-decoration="none" x="400" y="240">UNREGISTERED</text><text fill="#eeeeee" stroke="none" font-family="Arial" font-size="24px" font-style="normal" font-weight="normal" text-decoration="none" x="400" y="270">UNREGISTERED</text><text fill="#eeeeee" stroke="none" font-family="Arial" font-size="24px" font-style="normal" font-weight="normal" text-decoration="none" x="400" y="300">UNREGISTERED</text><text fill="#eeeeee" stroke="none" font-family="Arial" font-size="24px" font-style="normal" font-weight="normal" text-decoration="none" x="400" y="330">UNREGISTERED</text><text fill="#eeeeee" stroke="none" font-family="Arial" font-size="24px" font-style="normal" font-weight="normal" text-decoration="none" x="400" y="360">UNREGISTERED</text><text fill="#eeeeee" stroke="none" font-family="Arial" font-size="24px" font-style="normal" font-weight="normal" text-decoration="none" x="400" y="390">UNREGISTERED</text><text fill="#eeeeee" stroke="none" font-family="Arial" font-size="24px" font-style="normal" font-weight="normal" text-decoration="none" x="400" y="420">UNREGISTERED</text><text fill="#eeeeee" stroke="none" font-family="Arial" font-size="24px" font-style="normal" font-weight="normal" text-decoration="none" x="400" y="450">UNREGISTERED</text><text fill="#eeeeee" stroke="none" font-family="Arial" font-size="24px" font-style="normal" font-weight="normal" text-decoration="none" x="400" y="480">UNREGISTERED</text><text fill="#eeeeee" stroke="none" font-family="Arial" font-size="24px" font-style="normal" font-weight="normal" text-decoration="none" x="400" y="510">UNREGISTERED</text><text fill="#eeeeee" stroke="none" font-family="Arial" font-size="24px" font-style="normal" font-weight="normal" text-decoration="none" x="400" y="540">UNREGISTERED</text><text fill="#eeeeee" stroke="none" font-family="Arial" font-size="24px" font-style="normal" font-weight="normal" text-decoration="none" x="400" y="570">UNREGISTERED</text><text fill="#eeeeee" stroke="none" font-family="Arial" font-size="24px" font-style="normal" font-weight="normal" text-decoration="none" x="400" y="600">UNREGISTERED</text><text fill="#eeeeee" stroke="none" font-family="Arial" font-size="24px" font-style="normal" font-weight="normal" text-decoration="none" x="400" y="630">UNREGISTERED</text><text fill="#eeeeee" stroke="none" font-family="Arial" font-size="24px" font-style="normal" font-weight="normal" text-decoration="none" x="400" y="660">UNREGISTERED</text><text fill="#eeeeee" stroke="none" font-family="Arial" font-size="24px" font-style="normal" font-weight="normal" text-decoration="none" x="400" y="690">UNREGISTERED</text><text fill="#eeeeee" stroke="none" font-family="Arial" font-size="24px" font-style="normal" font-weight="normal" text-decoration="none" x="600" y="0">UNREGISTERED</text><text fill="#eeeeee" stroke="none" font-family="Arial" font-size="24px" font-style="normal" font-weight="normal" text-decoration="none" x="600" y="30">UNREGISTERED</text><text fill="#eeeeee" stroke="none" font-family="Arial" font-size="24px" font-style="normal" font-weight="normal" text-decoration="none" x="600" y="60">UNREGISTERED</text><text fill="#eeeeee" stroke="none" font-family="Arial" font-size="24px" font-style="normal" font-weight="normal" text-decoration="none" x="600" y="90">UNREGISTERED</text><text fill="#eeeeee" stroke="none" font-family="Arial" font-size="24px" font-style="normal" font-weight="normal" text-decoration="none" x="600" y="120">UNREGISTERED</text><text fill="#eeeeee" stroke="none" font-family="Arial" font-size="24px" font-style="normal" font-weight="normal" text-decoration="none" x="600" y="150">UNREGISTERED</text><text fill="#eeeeee" stroke="none" font-family="Arial" font-size="24px" font-style="normal" font-weight="normal" text-decoration="none" x="600" y="180">UNREGISTERED</text><text fill="#eeeeee" stroke="none" font-family="Arial" font-size="24px" font-style="normal" font-weight="normal" text-decoration="none" x="600" y="210">UNREGISTERED</text><text fill="#eeeeee" stroke="none" font-family="Arial" font-size="24px" font-style="normal" font-weight="normal" text-decoration="none" x="600" y="240">UNREGISTERED</text><text fill="#eeeeee" stroke="none" font-family="Arial" font-size="24px" font-style="normal" font-weight="normal" text-decoration="none" x="600" y="270">UNREGISTERED</text><text fill="#eeeeee" stroke="none" font-family="Arial" font-size="24px" font-style="normal" font-weight="normal" text-decoration="none" x="600" y="300">UNREGISTERED</text><text fill="#eeeeee" stroke="none" font-family="Arial" font-size="24px" font-style="normal" font-weight="normal" text-decoration="none" x="600" y="330">UNREGISTERED</text><text fill="#eeeeee" stroke="none" font-family="Arial" font-size="24px" font-style="normal" font-weight="normal" text-decoration="none" x="600" y="360">UNREGISTERED</text><text fill="#eeeeee" stroke="none" font-family="Arial" font-size="24px" font-style="normal" font-weight="normal" text-decoration="none" x="600" y="390">UNREGISTERED</text><text fill="#eeeeee" stroke="none" font-family="Arial" font-size="24px" font-style="normal" font-weight="normal" text-decoration="none" x="600" y="420">UNREGISTERED</text><text fill="#eeeeee" stroke="none" font-family="Arial" font-size="24px" font-style="normal" font-weight="normal" text-decoration="none" x="600" y="450">UNREGISTERED</text><text fill="#eeeeee" stroke="none" font-family="Arial" font-size="24px" font-style="normal" font-weight="normal" text-decoration="none" x="600" y="480">UNREGISTERED</text><text fill="#eeeeee" stroke="none" font-family="Arial" font-size="24px" font-style="normal" font-weight="normal" text-decoration="none" x="600" y="510">UNREGISTERED</text><text fill="#eeeeee" stroke="none" font-family="Arial" font-size="24px" font-style="normal" font-weight="normal" text-decoration="none" x="600" y="540">UNREGISTERED</text><text fill="#eeeeee" stroke="none" font-family="Arial" font-size="24px" font-style="normal" font-weight="normal" text-decoration="none" x="600" y="570">UNREGISTERED</text><text fill="#eeeeee" stroke="none" font-family="Arial" font-size="24px" font-style="normal" font-weight="normal" text-decoration="none" x="600" y="600">UNREGISTERED</text><text fill="#eeeeee" stroke="none" font-family="Arial" font-size="24px" font-style="normal" font-weight="normal" text-decoration="none" x="600" y="630">UNREGISTERED</text><text fill="#eeeeee" stroke="none" font-family="Arial" font-size="24px" font-style="normal" font-weight="normal" text-decoration="none" x="600" y="660">UNREGISTERED</text><text fill="#eeeeee" stroke="none" font-family="Arial" font-size="24px" font-style="normal" font-weight="normal" text-decoration="none" x="600" y="690">UNREGISTERED</text><g transform="translate(-71,-46) scale(1,1)"><rect fill="#C0C0C0" stroke="none" x="231" y="63" width="552" height="688" opacity="0.2"/></g><g transform="translate(-71,-46) scale(1,1)"><rect fill="#ffffff" stroke="none" x="224" y="56" width="552" height="688"/></g><g transform="translate(-71,-46) scale(1,1)"><path fill="none" stroke="#000000" d="M 224 56 L 776 56 L 776 744 L 224 744 L 224 56 Z Z" stroke-miterlimit="10"/></g><g transform="translate(-71,-46) scale(1,1)"><g><path fill="none" stroke="none"/><text fill="#000000" stroke="none" font-family="Arial" font-size="13px" font-style="normal" font-weight="bold" text-decoration="none" x="462.42822265625" y="75.5">SafkaaSTNA</text></g></g><g transform="translate(-71,-46) scale(1,1)"><path fill="#C0C0C0" stroke="none" d="M 295 211 C 295 191.1177472 393.0496288 175 514 175 C 634.9503712000001 175 733 191.1177472 733 211 C 733 230.8822528 634.9503712000001 247 514 247 C 393.0496288 247 295 230.8822528 295 211 Z" opacity="0.2"/></g><g transform="translate(-71,-46) scale(1,1)"><path fill="#ffffff" stroke="none" d="M 288 204 C 288 184.1177472 386.0496288 168 507 168 C 627.9503712000001 168 726 184.1177472 726 204 C 726 223.8822528 627.9503712000001 240 507 240 C 386.0496288 240 288 223.8822528 288 204 Z"/></g><g transform="translate(-71,-46) scale(1,1)"><path fill="none" stroke="#000000" d="M 288 204 C 288 184.1177472 386.0496288 168 507 168 C 627.9503712000001 168 726 184.1177472 726 204 C 726 223.8822528 627.9503712000001 240 507 240 C 386.0496288 240 288 223.8822528 288 204 Z" stroke-miterlimit="10"/></g><g transform="translate(-71,-46) scale(1,1)"><g><path fill="none" stroke="none"/><text fill="#000000" stroke="none" font-family="Arial" font-size="13px" font-style="normal" font-weight="bold" text-decoration="none" x="411.616943359375" y="211">Search restaurant with user input</text></g></g><g transform="translate(-71,-46) scale(1,1)"><path fill="#C0C0C0" stroke="none" d="M 287 431 C 287 411.1177472 385.0496288 395 506 395 C 626.9503712000001 395 725 411.1177472 725 431 C 725 450.8822528 626.9503712000001 467 506 467 C 385.0496288 467 287 450.8822528 287 431 Z" opacity="0.2"/></g><g transform="translate(-71,-46) scale(1,1)"><path fill="#ffffff" stroke="none" d="M 280 424 C 280 404.1177472 378.0496288 388 499 388 C 619.9503712000001 388 718 404.1177472 718 424 C 718 443.8822528 619.9503712000001 460 499 460 C 378.0496288 460 280 443.8822528 280 424 Z"/></g><g transform="translate(-71,-46) scale(1,1)"><path fill="none" stroke="#000000" d="M 280 424 C 280 404.1177472 378.0496288 388 499 388 C 619.9503712000001 388 718 404.1177472 718 424 C 718 443.8822528 619.9503712000001 460 499 460 C 378.0496288 460 280 443.8822528 280 424 Z" stroke-miterlimit="10"/></g><g transform="translate(-71,-46) scale(1,1)"><g><path fill="none" stroke="none"/><text fill="#000000" stroke="none" font-family="Arial" font-size="13px" font-style="normal" font-weight="bold" text-decoration="none" x="423.846923828125" y="431">Search nearest restaurant</text></g></g><g transform="translate(-71,-46) scale(1,1)"><path fill="#C0C0C0" stroke="none" d="M 295 541 C 295 521.1177472 393.0496288 505 514 505 C 634.9503712000001 505 733 521.1177472 733 541 C 733 560.8822528 634.9503712000001 577 514 577 C 393.0496288 577 295 560.8822528 295 541 Z" opacity="0.2"/></g><g transform="translate(-71,-46) scale(1,1)"><path fill="#ffffff" stroke="none" d="M 288 534 C 288 514.1177472 386.0496288 498 507 498 C 627.9503712000001 498 726 514.1177472 726 534 C 726 553.8822528 627.9503712000001 570 507 570 C 386.0496288 570 288 553.8822528 288 534 Z"/></g><g transform="translate(-71,-46) scale(1,1)"><path fill="none" stroke="#000000" d="M 288 534 C 288 514.1177472 386.0496288 498 507 498 C 627.9503712000001 498 726 514.1177472 726 534 C 726 553.8822528 627.9503712000001 570 507 570 C 386.0496288 570 288 553.8822528 288 534 Z" stroke-miterlimit="10"/></g><g transform="translate(-71,-46) scale(1,1)"><g><path fill="none" stroke="none"/><text fill="#000000" stroke="none" font-family="Arial" font-size="13px" font-style="normal" font-weight="bold" text-decoration="none" x="368.24658203125" y="541">Search additional information about a restaurant</text></g></g><g transform="translate(-71,-46) scale(1,1)"><path fill="#C0C0C0" stroke="none" d="M 295 651 C 295 631.1177472 393.0496288 615 514 615 C 634.9503712000001 615 733 631.1177472 733 651 C 733 670.8822528 634.9503712000001 687 514 687 C 393.0496288 687 295 670.8822528 295 651 Z" opacity="0.2"/></g><g transform="translate(-71,-46) scale(1,1)"><path fill="#ffffff" stroke="none" d="M 288 644 C 288 624.1177472 386.0496288 608 507 608 C 627.9503712000001 608 726 624.1177472 726 644 C 726 663.8822528 627.9503712000001 680 507 680 C 386.0496288 680 288 663.8822528 288 644 Z"/></g><g transform="translate(-71,-46) scale(1,1)"><path fill="none" stroke="#000000" d="M 288 644 C 288 624.1177472 386.0496288 608 507 608 C 627.9503712000001 608 726 624.1177472 726 644 C 726 663.8822528 627.9503712000001 680 507 680 C 386.0496288 680 288 663.8822528 288 644 Z" stroke-miterlimit="10"/></g><g transform="translate(-71,-46) scale(1,1)"><g><path fill="none" stroke="none"/><text fill="#000000" stroke="none" font-family="Arial" font-size="13px" font-style="normal" font-weight="bold" text-decoration="none" x="457.142333984375" y="651">Edit user settings</text></g></g><g transform="translate(-71,-46) scale(1,1)"><path fill="#C0C0C0" stroke="none" d="M 295 321 C 295 301.1177472 393.0496288 285 514 285 C 634.9503712000001 285 733 301.1177472 733 321 C 733 340.8822528 634.9503712000001 357 514 357 C 393.0496288 357 295 340.8822528 295 321 Z" opacity="0.2"/></g><g transform="translate(-71,-46) scale(1,1)"><path fill="#ffffff" stroke="none" d="M 288 314 C 288 294.1177472 386.0496288 278 507 278 C 627.9503712000001 278 726 294.1177472 726 314 C 726 333.8822528 627.9503712000001 350 507 350 C 386.0496288 350 288 333.8822528 288 314 Z"/></g><g transform="translate(-71,-46) scale(1,1)"><path fill="none" stroke="#000000" d="M 288 314 C 288 294.1177472 386.0496288 278 507 278 C 627.9503712000001 278 726 294.1177472 726 314 C 726 333.8822528 627.9503712000001 350 507 350 C 386.0496288 350 288 333.8822528 288 314 Z" stroke-miterlimit="10"/></g><g transform="translate(-71,-46) scale(1,1)"><g><path fill="none" stroke="none"/><text fill="#000000" stroke="none" font-family="Arial" font-size="13px" font-style="normal" font-weight="bold" text-decoration="none" x="431.846923828125" y="321">Search restaurant on map</text></g></g><g transform="translate(-71,-46) scale(1,1)"><path fill="#ffffff" stroke="none" d="M 100.29118625710227 376.68 C 100.29118625710227 371.886167936 104.17702858204773 368 108.970458984375 368 C 113.76388938670227 368 117.64973171164773 371.886167936 117.64973171164773 376.68 C 117.64973171164773 381.473832064 113.76388938670227 385.36 108.970458984375 385.36 C 104.17702858204773 385.36 100.29118625710227 381.473832064 100.29118625710227 376.68 Z"/></g><g transform="translate(-71,-46) scale(1,1)"><path fill="none" stroke="#000000" d="M 100.29118625710227 376.68 C 100.29118625710227 371.886167936 104.17702858204773 368 108.970458984375 368 C 113.76388938670227 368 117.64973171164773 371.886167936 117.64973171164773 376.68 C 117.64973171164773 381.473832064 113.76388938670227 385.36 108.970458984375 385.36 C 104.17702858204773 385.36 100.29118625710227 381.473832064 100.29118625710227 376.68 Z" stroke-miterlimit="10"/></g><g transform="translate(-71,-46) scale(1,1)"><path fill="none" stroke="#000000" d="M 108.970458984375 385.36 L 108.970458984375 402.64" stroke-miterlimit="10"/></g><g transform="translate(-71,-46) scale(1,1)"><path fill="none" stroke="#000000" d="M 99.78064080255682 391.84 L 118.16027716619318 391.84" stroke-miterlimit="10"/></g><g transform="translate(-71,-46) scale(1,1)"><path fill="none" stroke="#000000" d="M 108.970458984375 402.64 L 96.20682262073863 420" stroke-miterlimit="10"/></g><g transform="translate(-71,-46) scale(1,1)"><path fill="none" stroke="#000000" d="M 108.970458984375 402.64 L 121.73409534801137 420" stroke-miterlimit="10"/></g><g transform="translate(-71,-46) scale(1,1)"><g><path fill="none" stroke="none"/><text fill="#000000" stroke="none" font-family="Arial" font-size="13px" font-style="normal" font-weight="bold" text-decoration="none" x="87.648681640625" y="440.5">student</text></g></g><g transform="translate(-71,-46) scale(1,1)"><path fill="none" stroke="#000000" d="M 129 366 Q 184 264 308 241" stroke-miterlimit="10"/></g><g transform="translate(-71,-46) scale(1,1)"><path fill="none" stroke="#000000" d="M 138 385 Q 208 336 287 330" stroke-miterlimit="10"/></g><g transform="translate(-71,-46) scale(1,1)"><path fill="none" stroke="#000000" d="M 138 407 L 279 414" stroke-miterlimit="10"/></g><g transform="translate(-71,-46) scale(1,1)"><path fill="none" stroke="#000000" d="M 138 427 Q 216 480 308 497" stroke-miterlimit="10"/></g><g transform="translate(-71,-46) scale(1,1)"><path fill="none" stroke="#000000" d="M 127 447 Q 176 552 374 607" stroke-miterlimit="10"/></g></g></svg>